<svg xmlns="http://www.w3.org/2000/svg" viewBox="0 0 122.8 140"><title>Cloche</title><g id="Calque_2" data-name="Calque 2"><g id="Cloche"><path d="M122.78,57.86a58.63,58.63,0,0,1-6.36,24.66c-3.78,7.41-7.58,14.93-9.66,23.13a17.54,17.54,0,0,0-.11,5.21c.22,5.83,1.88,11.89-2.46,17.09-3.91,4.71-8.46,6.24-14.35,4-11.19-4.33-22.27-8.95-33.38-13.47q-22.53-9.17-45-18.37C5.68,97.73,1.26,94.15.18,87.54A11.18,11.18,0,0,1,3.44,77.36a76,76,0,0,1,7.09-6.56c5.38-4.24,7.58-10.48,10.11-16.52C23.72,46.87,25.7,39,30,32.11A51.47,51.47,0,0,1,55.66,10.78c5-1.94,10.19-3.42,15.66-3.26C73.39,7.58,75.06,6,75.91,5c4.23-5.39,15.47-6.44,22-2.85,7.58,4.19,11.64,10.48,11.59,19.18,0,2.36,1.68,3.48,2.79,5a50.83,50.83,0,0,1,9.93,24.41A44.22,44.22,0,0,1,122.78,57.86ZM100.57,22.77c.9-6.44-2.33-12.14-8.1-13.56-4.63-1.13-10.67-.84-14.19,5.06-.87,1.47-2.08,1.44-3.47,1.46A43,43,0,0,0,50,23.32c-6.13,4.29-11.36,9.52-14.33,16.51-3,7.14-5.64,14.45-8.58,21.63C25.4,65.71,23.57,70,20.37,73.35S13.56,79.4,10.21,82.5C8,84.53,8,86.79,9.78,89.1A9.82,9.82,0,0,0,14.17,92c7.16,2.9,14.39,5.63,21.55,8.52C54.36,108,73,115.59,91.61,123.11c4.65,1.87,6.37.49,6.61-4.48.21-4.32-1.23-8.57-.53-12.85a62,62,0,0,1,8.18-21.4c6.37-10.81,9.54-22,7.4-34.49a40.89,40.89,0,0,0-9.87-20.61C101.57,27.21,99.54,25.2,100.57,22.77Z" style="fill:#717171"/><path d="M44.74,121.11l29.25,12A15.71,15.71,0,0,1,55.52,139C49.19,136.78,43.25,130,44.74,121.11Z" style="fill:#717171"/></g></g></svg>