<svg xmlns="http://www.w3.org/2000/svg" viewBox="0 0 138.84 128.41"><title>Home_inactif</title><g id="Calque_2" data-name="Calque 2"><g id="Home_inactif"><path d="M131.26,47.19a4.5,4.5,0,0,0,6.12-1.64l.86-1.49a4.5,4.5,0,0,0-1.64-6.12L71.78.52a5.64,5.64,0,0,0-4.73,0L2.23,37.94A4.49,4.49,0,0,0,.6,44.06l.86,1.49a4.49,4.49,0,0,0,6.11,1.64l7.73-4.46,8.92,73.12a12.56,12.56,0,0,0,12.56,12.56h67.46a12.55,12.55,0,0,0,12.55-12.56l9.31-71.64Z" style="fill:#717171"/><path d="M106.57,116.57a2.34,2.34,0,0,1-2.33,2.33H36.78a2.34,2.34,0,0,1-2.34-2.33L24.87,37.4,67.59,12.73a3.66,3.66,0,0,1,3.65,0L116.57,38.9Z" style="fill:#fff"/><path d="M70.72,87A20.43,20.43,0,1,1,91.14,66.58,20.45,20.45,0,0,1,70.72,87Zm0-34.52a14.1,14.1,0,1,0,14.1,14.1A14.11,14.11,0,0,0,70.72,52.48Z" style="fill:#717171"/></g></g></svg>