<svg xmlns="http://www.w3.org/2000/svg" viewBox="0 0 87.96 120.7"><title>Homme_inactif</title><g id="Calque_2" data-name="Calque 2"><g id="Homme_inactif"><path d="M1.34,0h32.5a1.1,1.1,0,0,1,1.1,1.1V67.19a1.08,1.08,0,0,1-.61,1L19.42,74.28a.8.8,0,0,0-.48.61V81A1.09,1.09,0,0,0,20,82.1H70.73a1.09,1.09,0,0,0,1.1-1.1V77.33a.67.67,0,0,0-.36-.61l-14-8.43a.91.91,0,0,1-.49-.85l.12-57.06a1,1,0,0,1,1.1-1H86.86a1.1,1.1,0,0,1,1.1,1.1V119.6a1.1,1.1,0,0,1-1.1,1.1H72.93a1.1,1.1,0,0,1-1.1-1.1V93.33a1.09,1.09,0,0,0-1.1-1.09H19.79a1.09,1.09,0,0,0-1.1,1.09V119.6a1.1,1.1,0,0,1-1.1,1.1H1.1A1.1,1.1,0,0,1,0,119.6V1.34C.24.49.73,0,1.34,0Z" style="fill:#6d6f71"/></g></g></svg>