<svg xmlns="http://www.w3.org/2000/svg" viewBox="0 0 35.005 35.005"><g transform="translate(.004)"><ellipse data-name="Ellipse 3" class="cls-1" cx="17.502" cy="17.502" rx="17.502" ry="17.502" transform="translate(-.004)" fill="#007d94" fill-rule="evenodd"/><path data-name="Tracé 47" d="M10.496 13.25V24.5h15V13.25zm13.75-3.75h2.5a1.181 1.181 0 0 1 1.25 1.25v15a1.181 1.181 0 0 1-1.25 1.25h-17.5a1.181 1.181 0 0 1-1.25-1.25v-15a1.181 1.181 0 0 1 1.25-1.25h2.5V8.25A1.181 1.181 0 0 1 12.996 7a1.181 1.181 0 0 1 1.25 1.25V9.5h7.5V8.25a1.25 1.25 0 0 1 2.5 0zM22.996 22h-2.5v-2.5h2.5zm-3.75 0h-2.5v-2.5h2.5zm3.75-3.75h-2.5v-2.5h2.5zm-3.75 0h-2.5v-2.5h2.5zM15.496 22h-2.5v-2.5h2.5z" fill="#fff"/></g></svg>