<svg xmlns="http://www.w3.org/2000/svg" viewBox="0 0 39.996 44.005">
  <defs>
    <style>
      .cls-1, .cls-3 {
        fill: #007d94;
      }

      .cls-2 {
        fill: #fff;
        fill-rule: evenodd;
      }

      .cls-3 {
        stroke: #f8f8f8;
      }

      .cls-4 {
        fill: #ffd515;
        font-size: 12px;
        font-family: SourceSansPro-Semibold, Source Sans Pro;
        font-weight: 600;
      }

      .cls-5 {
        stroke: none;
      }

      .cls-6 {
        fill: none;
      }
    </style>
  </defs>
  <g id="Groupe_98" data-name="Groupe 98" transform="translate(-178 -446)">
    <g id="Interessé" transform="translate(188 450)">
      <ellipse id="Ellipse_3" data-name="Ellipse 3" class="cls-1" cx="17.502" cy="17.502" rx="17.502" ry="17.502" transform="translate(-10 5)"/>
    </g>
    <g id="Comment" transform="translate(-694 -86)">
      <path id="Chat" class="cls-2" d="M5.625,9A1.063,1.063,0,0,0,6.75,10.125h4.5A1.127,1.127,0,0,0,12.375,9,1.063,1.063,0,0,0,11.25,7.875H6.75A1.127,1.127,0,0,0,5.625,9ZM0,5.625A5.57,5.57,0,0,1,5.625,0h6.75A5.57,5.57,0,0,1,18,5.625v11.25A1.063,1.063,0,0,1,16.875,18H5.625A5.57,5.57,0,0,1,0,12.375Z" transform="translate(880 550)"/>
    </g>
    <g id="Groupe_127" data-name="Groupe 127" transform="translate(-97.004 7)">
      <g id="Ellipse_4" data-name="Ellipse 4" class="cls-3" transform="translate(295 439)">
        <circle class="cls-5" cx="10" cy="10" r="10"/>
        <circle class="cls-6" cx="10" cy="10" r="9.5"/>
      </g>
      <text id="_18" data-name="18" class="cls-4" transform="translate(305 453)"><tspan x="-6.156" y="0"></tspan></text>
    </g>
  </g>
</svg>
