<svg xmlns="http://www.w3.org/2000/svg" viewBox="0 0 50.37 37.88"><title>Interactions</title><g id="Calque_2" data-name="Calque 2"><g id="Interactions"><path d="M50.2,33.44a66.48,66.48,0,0,0-6.78-.32,37.59,37.59,0,0,0-16.13,3.54,11.53,11.53,0,0,0-1.47.79c-.82.54-.88.58-1.21.08a3.06,3.06,0,0,0-1.39-.88A36.88,36.88,0,0,0,7.36,33a51.54,51.54,0,0,0-6.46.25c-.65.08-.91-.07-.9-.79.06-7.28.08-14.56.13-21.83,0-2.8-.07-5.6.08-8.4,0-.2,0-.4,0-.6C.31.07.38,0,1.91,0c3.51.14,7,0,10.54.38C16.83.86,21,1.91,24.6,4.65a.88.88,0,0,0,1.25,0A22.87,22.87,0,0,1,37.1.61c4-.46,8-.4,12-.5A.74.74,0,0,1,50,.82a8.88,8.88,0,0,1,.19,1.54c0,4.76.06,9.52.08,14.28,0,4.12,0,8.24,0,12.36,0,1.15.07,2.31.1,3.47A1.48,1.48,0,0,1,50.2,33.44Z" style="fill:#007d94;opacity:0.85"/><path d="M24.56,36.22a35.71,35.71,0,0,0-10.37-3.55A47.33,47.33,0,0,0,2,32.19c-1.15.09-1,.07-1-1Q1,18.51,1.11,5.8c0-1.32.06-2.64.11-4,0-.85,0-.91,1-.87,3.15.13,6.31.05,9.46.34a29.17,29.17,0,0,1,8,1.73A18.46,18.46,0,0,1,24,5.41a1.34,1.34,0,0,1,.67,1.17q0,14.58,0,29.16A3.05,3.05,0,0,1,24.56,36.22Z" style="fill:#f5f7f7"/><path d="M45.51,21.68c0,1.44,0,3,0,4.53a17.6,17.6,0,0,0,.08,2.51c.11.85,0,.91-.91,1a47.7,47.7,0,0,0-11.07,1.7c-1.57.44-3.12.94-4.69,1.41a3.11,3.11,0,0,1-.54.07c0-2.46,0-4.89.13-7.31,0-.57.51-.56.86-.66,1.81-.47,3.61-1,5.44-1.37,3.31-.7,6.63-1.32,10-2A.81.81,0,0,1,45.51,21.68Z" style="fill:#fbfbfb"/><path d="M28.16,19c-.08,0-.21,0-.25-.21s0-.35.13-.42a3,3,0,0,1,.68-.23l16.12-3.95c.27-.07.65-.37.76.13s-.38.43-.66.5L28.48,18.93Z" style="fill:#e7eced"/><path d="M45.61,6.82c0,.4-.33.45-.6.52L40.6,8.41,28.77,11.36a2,2,0,0,1-.35.07c-.17,0-.41.18-.5-.11a.38.38,0,0,1,.3-.54l1.52-.36L44.58,6.75a5.42,5.42,0,0,1,.7-.14A.27.27,0,0,1,45.61,6.82Z" style="fill:#e6ebed"/><path d="M28.56,12.56c-.43.1-.6.08-.65-.11a.37.37,0,0,1,.24-.48c.3-.1.61-.17.92-.25C34.18,10.46,39.29,9.19,44.4,8c.38-.09,1-.47,1.14,0,.19.68-.58.56-1,.66-5.23,1.31-10.45,2.59-15.68,3.89A1.45,1.45,0,0,0,28.56,12.56Z" style="fill:#e7eced"/><path d="M45.62,10.2c0,.47-.34.47-.61.54L40,12c-3.67.92-7.33,1.86-11,2.75-.34.08-.92.57-1.09,0s.57-.53.92-.62c2.46-.65,4.94-1.25,7.41-1.86l8.57-2.14C45.14,10,45.44,9.87,45.62,10.2Z" style="fill:#e7eced"/><path d="M45.61,13.2c0,.41-.31.4-.57.46l-3.93,1-12,3a3.56,3.56,0,0,1-.47.1c-.24,0-.56.34-.68-.1s.3-.46.59-.54l2-.5,14-3.48a7.33,7.33,0,0,1,.81-.19A.25.25,0,0,1,45.61,13.2Z" style="fill:#e6ebec"/><path d="M28.31,13.79c-.21,0-.36,0-.4-.18a.34.34,0,0,1,.14-.42,3.13,3.13,0,0,1,.68-.2c5.32-1.32,10.65-2.65,16-3.94.25-.06.74-.52.87.07s-.49.45-.78.52C39.37,11,33.93,12.37,28.5,13.73Z" style="fill:#e4e9eb"/><path d="M28.34,22.42c-.23,0-.39,0-.43-.16a.35.35,0,0,1,.17-.41,3.77,3.77,0,0,1,.58-.14l16-4c.23-.06.46-.11.7-.15s.22.08.23.2,0,.28-.06.32a2.57,2.57,0,0,1-.66.28L28.51,22.38Z" style="fill:#e3e9ea"/><path d="M28.26,10.28c-.17.07-.3.06-.35-.16a.29.29,0,0,1,.18-.38c.22-.08.45-.15.68-.21L44.66,5.58c.32-.07.77-.4.92.07s-.41.46-.73.54l-16,4A5.58,5.58,0,0,1,28.26,10.28Z" style="fill:#e4eaeb"/><path d="M28.5,20.09c-.36.05-.56.06-.59-.22a.34.34,0,0,1,.25-.36l.57-.16,15.91-3.92c.32-.08.82-.39.92,0s-.5.47-.86.56L28.93,20C28.74,20.05,28.54,20.08,28.5,20.09Z" style="fill:#e4eaeb"/><path d="M45.61,16.7c-.07.36-.38.39-.64.45l-4.64,1.13L28.85,21.11c-.2.05-.39.12-.58.15s-.32,0-.36-.2a.32.32,0,0,1,.23-.37,5.32,5.32,0,0,1,.57-.16l15.88-4a4.1,4.1,0,0,1,.7-.12A.28.28,0,0,1,45.61,16.7Z" style="fill:#e4eaeb"/><path d="M33.91,21.67c0,.42-.13.53-.4.59-.62.13-1.23.31-1.85.46l-3.23.8c-.25.06-.57.31-.67-.14s.26-.42.54-.49l2-.49,3.11-.8C33.6,21.54,33.83,21.47,33.91,21.67Z" style="fill:#e7eced"/><path d="M22.61,16.18l-6.43-1.47c-3.11-.71-6.26-1.22-9.42-1.62-1.27-.16-1.26-.15-1.28-1.44q-.06-3.47-.15-6.94c0-.47.06-.73.65-.67a116.09,116.09,0,0,1,12.2,1.65c1.21.25,2.39.61,3.59.89.39.09.63.21.64.68C22.49,10.2,22.66,13.15,22.61,16.18Z" style="fill:#007d94;opacity:0.85"/><path d="M5.64,14.09l4.38.79L21.53,17c.31.05.62.15.94.19s.58.15.5.51-.38.19-.6.15c-1.14-.2-2.27-.42-3.4-.63L6.17,14.85c-.2,0-.4,0-.59-.1a.35.35,0,0,1-.26-.45C5.35,14.09,5.51,14.08,5.64,14.09Z" style="fill:#007d94;opacity:0.85"/><path d="M5.76,15.27l5.85,1,10,1.84c.27.05.55.09.81.16s.64,0,.57.45-.41.23-.67.18L16.2,17.85,6.34,16a3.83,3.83,0,0,1-.59-.1c-.23-.06-.5-.15-.41-.47S5.66,15.27,5.76,15.27Z" style="fill:#007d94;opacity:0.85"/><path d="M22.28,30.17l-5.84-1.08c-3.33-.61-6.66-1.21-10-1.85-.41-.07-1.21.06-1.08-.56s.83-.14,1.2-.07c5.17.91,10.34,1.88,15.51,2.83a1.36,1.36,0,0,1,.35.07c.24.1.64.11.52.5S22.54,30.16,22.28,30.17Z" style="fill:#007d94;opacity:0.85"/><path d="M22.44,26.72,12.93,25c-2.27-.41-4.53-.84-6.8-1.27a3.83,3.83,0,0,1-.59-.1.35.35,0,0,1-.21-.48c0-.19.22-.2.39-.16l.93.19L22,26c.2,0,.4.05.59.09a.38.38,0,0,1,.36.41C23,26.83,22.68,26.77,22.44,26.72Z" style="fill:#007d94;opacity:0.85"/><path d="M22.54,21.27l-4.42-.78L6.6,18.38c-.31-.06-.62-.15-.94-.2s-.42-.2-.33-.49.29-.17.48-.13c1.69.3,3.38.59,5.06.9L22,20.54c.19,0,.4.05.59.1s.38.18.34.42S22.67,21.26,22.54,21.27Z" style="fill:#007d94;opacity:0.85"/><path d="M5.92,25.33c2,.35,3.95.69,5.91,1.05,3.33.61,6.66,1.22,10,1.87.4.08,1.19-.06,1.08.56s-.77.16-1.15.1Q13.86,27.49,6,26l-.12,0c-.25-.09-.62-.1-.52-.49S5.73,25.35,5.92,25.33Z" style="fill:#007d94;opacity:0.85"/><path d="M22.41,20.13l-4.71-.86q-5.64-1-11.28-2.09c-.39-.07-1.11,0-1-.49s.73-.24,1.09-.17q7.89,1.41,15.76,2.88l.34.09c.19.06.42.12.39.37S22.64,20.11,22.41,20.13Z" style="fill:#007d94;opacity:0.85"/><path d="M5.66,24.15l2.58.47c4.59.83,9.17,1.65,13.75,2.52.33.06,1.1-.15.93.56s-.71.11-1,.05c-5.34-.95-10.66-1.93-16-2.9a2,2,0,0,1-.35-.09.35.35,0,0,1-.23-.37C5.33,24.17,5.5,24.17,5.66,24.15Z" style="fill:#007d94;opacity:0.85"/><path d="M22.58,25.58c-2.48-.44-4.79-.84-7.1-1.26L6.54,22.69c-.24,0-.47-.12-.7-.16s-.62-.05-.52-.47.45-.18.68-.13l15.4,2.81c.36.07.71.11,1.07.17s.51.14.49.42S22.64,25.58,22.58,25.58Z" style="fill:#007d94;opacity:0.85"/><path d="M5.82,18.71l10.47,1.93,5.76,1.08c.2,0,.4,0,.6.09a.36.36,0,0,1,.32.42c0,.27-.28.24-.48.21l-4.12-.74L6.72,19.57l-1-.22c-.3-.05-.42-.23-.34-.5S5.63,18.67,5.82,18.71Z" style="fill:#007d94;opacity:0.85"/><path d="M12.52,29.53,5.85,28.27c-.27-.05-.62,0-.52-.45s.43-.21.67-.17l6.22,1.12c.15,0,.3.1.46.13s.44.18.34.48S12.71,29.55,12.52,29.53Z" style="fill:#007d94;opacity:0.85"/><path d="M5.79,19.86c1.78.33,3.45.64,5.13.93.3.06.6.15.52.49s-.46.23-.7.18c-1.63-.29-3.27-.61-4.9-.91-.3-.05-.59-.1-.52-.48S5.68,19.86,5.79,19.86Z" style="fill:#007d94;opacity:0.85"/></g></g></svg>