<svg xmlns="http://www.w3.org/2000/svg" viewBox="0 0 136.95 136.95"><title>Actu_actif</title><g id="Calque_2" data-name="Calque 2"><g id="Actu_actif"><path d="M132,68.47H4.92V25.61S6.19,4.92,25.61,4.92h85.73S132,5.16,132,25.61Z" style="fill:#007d94"/><path d="M111.34,135H25.61A23.63,23.63,0,0,1,2,111.34V25.61A23.63,23.63,0,0,1,25.61,2h85.73A23.63,23.63,0,0,1,135,25.61v85.73A23.63,23.63,0,0,1,111.34,135ZM25.61,7.83A17.81,17.81,0,0,0,7.83,25.61v85.73a17.8,17.8,0,0,0,17.78,17.77h85.73a17.79,17.79,0,0,0,17.77-17.77V25.61A17.8,17.8,0,0,0,111.34,7.83Z" style="fill:#007d94;stroke:#007d94;stroke-miterlimit:10;stroke-width:4px"/><circle cx="34.32" cy="34.87" r="13.61" style="fill:#fff"/><rect x="59.6" y="22.23" width="55.66" height="8.75" rx="4.37" ry="4.37" style="fill:#fff"/><rect x="59.6" y="39.73" width="55.66" height="8.75" rx="4.37" ry="4.37" style="fill:#fff"/></g></g></svg>
