<svg xmlns="http://www.w3.org/2000/svg" viewBox="0 0 16.947 16.947">
  <defs>
    <style>
      .cls-1 {
        fill: #ffd515;
      }
    </style>
  </defs>
  <path id="Tracé_44" data-name="Tracé 44" class="cls-1" d="M16.947,15.455,13.43,11.937a7.3,7.3,0,0,0,1.492-4.476A7.415,7.415,0,0,0,7.461,0,7.415,7.415,0,0,0,0,7.461a7.415,7.415,0,0,0,7.461,7.461,7.3,7.3,0,0,0,4.476-1.492l3.517,3.517ZM2.132,7.461A5.277,5.277,0,0,1,7.461,2.132,5.277,5.277,0,0,1,12.79,7.461,5.277,5.277,0,0,1,7.461,12.79,5.277,5.277,0,0,1,2.132,7.461Z" transform="translate(0 0)"/>
</svg>
